<svg width="43" height="43" viewBox="0 0 43 43" fill="none" xmlns="http://www.w3.org/2000/svg">
<circle cx="21.5" cy="21.4904" r="21.4904" fill="#FFDEDE"/>
<path d="M22.4206 25.5151C22.4206 25.3953 22.3968 25.2768 22.3506 25.1662C22.3043 25.0556 22.2366 24.9551 22.1511 24.8704C22.0657 24.7857 21.9642 24.7186 21.8526 24.6728C21.7409 24.6269 21.6213 24.6034 21.5004 24.6034C21.3796 24.6034 21.2599 24.6269 21.1483 24.6728C21.0367 24.7186 20.9352 24.7857 20.8498 24.8704C20.7643 24.9551 20.6965 25.0556 20.6503 25.1662C20.6041 25.2768 20.5803 25.3953 20.5803 25.5151C20.5878 25.7518 20.688 25.9762 20.8597 26.141C21.0313 26.3058 21.261 26.3979 21.5 26.3979C21.739 26.3979 21.9686 26.3058 22.1403 26.141C22.3119 25.9762 22.4121 25.7518 22.4197 25.5151H22.4206ZM22.1811 18.3482C22.1573 18.1764 22.0684 18.0199 21.9325 17.9104C21.7967 17.801 21.6239 17.7468 21.4492 17.7587C21.2745 17.7706 21.1109 17.8479 20.9915 17.9748C20.8721 18.1017 20.8057 18.2687 20.8059 18.4422L20.8096 22.55L20.8161 22.643C20.8399 22.8149 20.9288 22.9714 21.0647 23.0809C21.2005 23.1903 21.3733 23.2445 21.548 23.2326C21.7227 23.2207 21.8863 23.1434 22.0057 23.0165C22.1251 22.8896 22.1914 22.7225 22.1913 22.549L22.1876 18.4404L22.1811 18.3482ZM23.3141 13.3398C22.5247 11.927 20.4752 11.927 19.6868 13.3398L12.5519 26.1174C11.7874 27.4863 12.7868 29.1656 14.3665 29.1656H28.6344C30.2132 29.1656 31.2126 27.4863 30.4481 26.1174L23.3132 13.3407L23.3141 13.3398ZM20.8953 14.0023C20.955 13.8952 21.0426 13.806 21.1489 13.7438C21.2553 13.6816 21.3765 13.6488 21.5 13.6488C21.6235 13.6488 21.7447 13.6816 21.851 13.7438C21.9574 13.806 22.045 13.8952 22.1047 14.0023L29.2396 26.7809C29.2978 26.8851 29.3275 27.0026 29.3258 27.1218C29.3241 27.2409 29.2911 27.3575 29.23 27.4601C29.1688 27.5627 29.0817 27.6477 28.9773 27.7067C28.8728 27.7658 28.7546 27.7967 28.6344 27.7966H14.3665C14.2462 27.7967 14.128 27.7658 14.0236 27.7067C13.9191 27.6477 13.832 27.5627 13.7709 27.4601C13.7098 27.3575 13.6768 27.2409 13.6751 27.1218C13.6734 27.0026 13.7031 26.8851 13.7613 26.7809L20.8953 14.0023Z" fill="#FF0000"/>
</svg>
